<svg viewBox="0 0 256 256" xmlns="http://www.w3.org/2000/svg"><g id="SVGRepo_bgCarrier" stroke-width="0"/><g id="SVGRepo_tracerCarrier" stroke-linecap="round" stroke-linejoin="round"/><g id="SVGRepo_iconCarrier"><defs><style>.cls-1{fill:#90fc95}.cls-2{fill:#2fb1ea}.cls-5{fill:#a4ecff}.cls-6{fill:#6dd0fc}.cls-11{fill:#d4ffd4}.cls-12{fill:#ffbdbd}.cls-13{fill:#bbf1ff}.cls-14{fill:#fff4c5}</style></defs><g id="Layer_2" data-name="Layer 2"><path class="cls-1" d="M117.69 24h54.7v54.7h-54.7z"/><path class="cls-2" d="M172.4 80.7h-54.7a2 2 0 0 1-2-2V24a2 2 0 0 1 2-2h54.7a2 2 0 0 1 2 2v54.7a2 2 0 0 1-2 2Zm-52.7-4h50.7V26h-50.7Z"/><path style="fill:#ffe76e" d="M83.46 54.17h49.07v49.07H83.46z"/><path style="fill:#ffc444" d="M83.46 70.7h49.07v32.54H83.46z"/><path class="cls-2" d="M132.53 105.24H83.46a2 2 0 0 1-2-2V54.17a2 2 0 0 1 2-2h49.07a2 2 0 0 1 2 2v49.07a2 2 0 0 1-2 2Zm-47.07-4h45.07V56.17H85.46Z"/><path class="cls-5" d="m150.458 33.194 38.679 38.679-53.896 53.896-38.679-38.68z"/><path class="cls-6" d="m135.24 125.77 53.9-53.9-1.17-1.17h-75.02L96.56 87.09l38.68 38.68z"/><path class="cls-2" d="M135.24 127.77a2 2 0 0 1-1.41-.59L95.15 88.5a2 2 0 0 1 0-2.83L149 31.78a2 2 0 0 1 2.83 0l38.68 38.68a2 2 0 0 1 0 2.83l-53.9 53.9a2 2 0 0 1-1.37.58ZM99.39 87.09l35.85 35.85 51.07-51.07L150.46 36Z"/><path style="fill:#f88" d="M41.14 44h49.07v49.07H41.14z"/><path style="fill:#f97171" d="M41.14 70.7h49.07v22.37H41.14z"/><path class="cls-2" d="M90.21 95.07H41.14a2 2 0 0 1-2-2V44a2 2 0 0 1 2-2h49.07a2 2 0 0 1 2 2v49.07a2 2 0 0 1-2 2Zm-47.07-4h45.07V46H43.14Z"/><path d="M189.14 177.3H68.67a12 12 0 0 1-11.14-7.55L27.72 95.16A12 12 0 0 1 38.86 78.7h150.28Z" style="fill:#cbecf9"/><path d="M177.53 166.5H68.67a12 12 0 0 1-11.14-7.5L27.72 95.16A12 12 0 0 1 38.86 78.7h138.67Z" style="fill:#fff"/><path class="cls-2" d="M189.14 179.3H68.67a13.93 13.93 0 0 1-13-8.8L25.86 95.9a14 14 0 0 1 13-19.2h150.28a2 2 0 0 1 2 2v98.6a2 2 0 0 1-2 2ZM38.86 80.7a10 10 0 0 0-9.29 13.71L59.38 169a10 10 0 0 0 9.29 6.29h118.47V80.7Z"/><circle class="cls-1" cx="219.14" cy="54" r="10"/><path class="cls-2" d="M219.14 66a12 12 0 1 1 12-12 12 12 0 0 1-12 12Zm0-20a8 8 0 1 0 8 8 8 8 0 0 0-8-8Z"/><path class="cls-2" d="M189.14 80.7a2 2 0 0 1-2-2V67.93a2 2 0 0 1 1.07-1.77l20.52-10.77a2 2 0 0 1 1.86 3.54l-19.45 10.21v9.56a2 2 0 0 1-2 2Z"/><circle class="cls-6" cx="61.14" cy="212" r="20"/><circle class="cls-5" cx="61.14" cy="207.14" r="15.14"/><path class="cls-2" d="M61.14 234a22 22 0 1 1 22-22 22 22 0 0 1-22 22Zm0-40a18 18 0 1 0 18 18 18 18 0 0 0-18-18Z"/><path class="cls-2" d="M211.79 214H81.14a2 2 0 0 1 0-4h130.65a15.35 15.35 0 1 0 0-30.7h-22.65a2 2 0 0 1 0-4h22.65a19.35 19.35 0 1 1 0 38.7Z"/><circle class="cls-6" cx="169.14" cy="212" r="20"/><circle class="cls-5" cx="169.14" cy="207.14" r="15.14"/><path class="cls-2" d="M169.14 234a22 22 0 1 1 22-22 22 22 0 0 1-22 22Zm0-40a18 18 0 1 0 18 18 18 18 0 0 0-18-18Z"/><circle class="cls-11" cx="31" cy="46" r="5"/><circle class="cls-11" cx="37" cy="171" r="4"/><circle class="cls-11" cx="198" cy="222" r="3"/><circle class="cls-11" cx="88" cy="24" r="2"/><circle class="cls-11" cx="45" cy="185" r="1"/><circle class="cls-12" cx="11" cy="84" r="5"/><circle class="cls-12" cx="124" cy="10" r="4"/><circle class="cls-12" cx="171" cy="247" r="3"/><circle class="cls-12" cx="224" cy="160" r="2"/><circle class="cls-12" cx="69" cy="236" r="1"/><circle class="cls-13" cx="137" cy="229" r="5"/><circle class="cls-13" cx="203" cy="123" r="4"/><circle class="cls-13" cx="187" cy="34" r="3"/><circle class="cls-13" cx="218" cy="140" r="2"/><circle class="cls-13" cx="43" cy="229" r="1"/><circle class="cls-14" cx="245" cy="142" r="5"/><circle class="cls-14" cx="224" cy="91" r="4"/><circle class="cls-14" cx="101" cy="191" r="3"/><circle class="cls-14" cx="26" cy="142" r="2"/><circle class="cls-14" cx="52" cy="28" r="1"/></g></g></svg>